<svg width="18" height="18" viewBox="0 0 18 18" fill="none" xmlns="http://www.w3.org/2000/svg">
<path fill-rule="evenodd" clip-rule="evenodd" d="M0.666687 8.99999C0.666687 4.39999 4.40002 0.666656 9.00002 0.666656C13.6 0.666656 17.3334 4.39999 17.3334 8.99999C17.3334 13.6 13.6 17.3333 9.00002 17.3333C4.40002 17.3333 0.666687 13.6 0.666687 8.99999ZM9.83335 8.16666V13.1667H8.16669V8.16666H9.83335ZM9.00002 15.6667C5.32502 15.6667 2.33335 12.675 2.33335 8.99999C2.33335 5.32499 5.32502 2.33332 9.00002 2.33332C12.675 2.33332 15.6667 5.32499 15.6667 8.99999C15.6667 12.675 12.675 15.6667 9.00002 15.6667ZM9.83335 4.83332V6.49999H8.16669V4.83332H9.83335Z" fill="#999999"/>
</svg>
